<svg width="30" height="30" viewBox="0 0 30 30" fill="none" xmlns="http://www.w3.org/2000/svg">
<path d="M26.25 23.75V25H3.75V23.75L6.25 21.25V13.75C6.25 9.875 8.7875 6.4625 12.5 5.3625V5C12.5 4.33696 12.7634 3.70107 13.2322 3.23223C13.7011 2.76339 14.337 2.5 15 2.5C15.663 2.5 16.2989 2.76339 16.7678 3.23223C17.2366 3.70107 17.5 4.33696 17.5 5V5.3625C21.2125 6.4625 23.75 9.875 23.75 13.75V21.25L26.25 23.75ZM17.5 26.25C17.5 26.913 17.2366 27.5489 16.7678 28.0178C16.2989 28.4866 15.663 28.75 15 28.75C14.337 28.75 13.7011 28.4866 13.2322 28.0178C12.7634 27.5489 12.5 26.913 12.5 26.25" fill="black"/>
</svg>
