<svg width="10" height="10" viewBox="0 0 10 10" fill="none" xmlns="http://www.w3.org/2000/svg">
<path fill-rule="evenodd" clip-rule="evenodd" d="M3.15581 1.80667C3.26995 1.63544 3.4246 1.49505 3.60602 1.39794C3.78744 1.30083 3.99003 1.25001 4.19581 1.25H5.80415C6.00992 1.25001 6.21252 1.30083 6.39394 1.39794C6.57536 1.49505 6.73001 1.63544 6.84415 1.80667L7.18248 2.31458C7.22054 2.37163 7.2721 2.4184 7.33257 2.45075C7.39304 2.48309 7.46057 2.50001 7.52915 2.5H7.91665C8.24817 2.5 8.56611 2.6317 8.80053 2.86612C9.03495 3.10054 9.16665 3.41848 9.16665 3.75V7.5C9.16665 7.83152 9.03495 8.14946 8.80053 8.38388C8.56611 8.6183 8.24817 8.75 7.91665 8.75H2.08331C1.75179 8.75 1.43385 8.6183 1.19943 8.38388C0.965009 8.14946 0.833313 7.83152 0.833313 7.5V3.75C0.833313 3.41848 0.965009 3.10054 1.19943 2.86612C1.43385 2.6317 1.75179 2.5 2.08331 2.5H2.47081C2.53939 2.50001 2.60692 2.48309 2.66739 2.45075C2.72786 2.4184 2.77942 2.37163 2.81748 2.31458L3.15581 1.80667ZM4.16665 5.41667C4.16665 5.19565 4.25444 4.98369 4.41072 4.82741C4.567 4.67113 4.77897 4.58333 4.99998 4.58333C5.22099 4.58333 5.43295 4.67113 5.58923 4.82741C5.74552 4.98369 5.83331 5.19565 5.83331 5.41667C5.83331 5.63768 5.74552 5.84964 5.58923 6.00592C5.43295 6.1622 5.22099 6.25 4.99998 6.25C4.77897 6.25 4.567 6.1622 4.41072 6.00592C4.25444 5.84964 4.16665 5.63768 4.16665 5.41667ZM4.99998 3.75C4.55795 3.75 4.13403 3.92559 3.82147 4.23816C3.50891 4.55072 3.33331 4.97464 3.33331 5.41667C3.33331 5.85869 3.50891 6.28262 3.82147 6.59518C4.13403 6.90774 4.55795 7.08333 4.99998 7.08333C5.44201 7.08333 5.86593 6.90774 6.17849 6.59518C6.49105 6.28262 6.66665 5.85869 6.66665 5.41667C6.66665 4.97464 6.49105 4.55072 6.17849 4.23816C5.86593 3.92559 5.44201 3.75 4.99998 3.75Z" fill="black"/>
</svg>
