<svg width="40" height="40" viewBox="0 0 40 40" fill="none" xmlns="http://www.w3.org/2000/svg">
<path d="M31.25 6.25H8.75C7.42392 6.25 6.15215 6.77678 5.21447 7.71447C4.27678 8.65215 3.75 9.92392 3.75 11.25V23.75C3.75 25.0761 4.27678 26.3479 5.21447 27.2855C6.15215 28.2232 7.42392 28.75 8.75 28.75H22.5L30 33.75V28.75H31.25C32.5761 28.75 33.8479 28.2232 34.7855 27.2855C35.7232 26.3479 36.25 25.0761 36.25 23.75V11.25C36.25 9.92392 35.7232 8.65215 34.7855 7.71447C33.8479 6.77678 32.5761 6.25 31.25 6.25Z" stroke="#00D8D8" stroke-width="1.25" stroke-linecap="round" stroke-linejoin="round"/>
<path d="M12.5 18.75C12.5 19.0815 12.3683 19.3995 12.1339 19.6339C11.8995 19.8683 11.5815 20 11.25 20C10.9185 20 10.6005 19.8683 10.3661 19.6339C10.1317 19.3995 10 19.0815 10 18.75C10 18.4185 10.1317 18.1005 10.3661 17.8661C10.6005 17.6317 10.9185 17.5 11.25 17.5C11.5815 17.5 11.8995 17.6317 12.1339 17.8661C12.3683 18.1005 12.5 18.4185 12.5 18.75ZM20 18.75C20 19.0815 19.8683 19.3995 19.6339 19.6339C19.3995 19.8683 19.0815 20 18.75 20C18.4185 20 18.1005 19.8683 17.8661 19.6339C17.6317 19.3995 17.5 19.0815 17.5 18.75C17.5 18.4185 17.6317 18.1005 17.8661 17.8661C18.1005 17.6317 18.4185 17.5 18.75 17.5C19.0815 17.5 19.3995 17.6317 19.6339 17.8661C19.8683 18.1005 20 18.4185 20 18.75ZM27.5 18.75C27.5 19.0815 27.3683 19.3995 27.1339 19.6339C26.8995 19.8683 26.5815 20 26.25 20C25.9185 20 25.6005 19.8683 25.3661 19.6339C25.1317 19.3995 25 19.0815 25 18.75C25 18.4185 25.1317 18.1005 25.3661 17.8661C25.6005 17.6317 25.9185 17.5 26.25 17.5C26.5815 17.5 26.8995 17.6317 27.1339 17.8661C27.3683 18.1005 27.5 18.4185 27.5 18.75Z" stroke="#00D8D8" stroke-width="1.25" stroke-linecap="round" stroke-linejoin="round"/>
</svg>
