<svg width="150" height="150" viewBox="0 0 150 150" fill="none" xmlns="http://www.w3.org/2000/svg">
<path fill-rule="evenodd" clip-rule="evenodd" d="M75 150C84.8491 150 94.6018 148.06 103.701 144.291C112.801 140.522 121.069 134.997 128.033 128.033C134.997 121.069 140.522 112.801 144.291 103.701C148.06 94.6018 150 84.8491 150 75C150 65.1509 148.06 55.3982 144.291 46.2987C140.522 37.1993 134.997 28.9314 128.033 21.967C121.069 15.0026 112.801 9.47814 103.701 5.70903C94.6018 1.93993 84.8491 -1.46764e-07 75 0C55.1088 2.96403e-07 36.0322 7.90176 21.967 21.967C7.90176 36.0322 0 55.1088 0 75C0 94.8912 7.90176 113.968 21.967 128.033C36.0322 142.098 55.1088 150 75 150ZM73.0667 105.333L114.733 55.3333L101.933 44.6667L66.1 87.6583L47.5583 69.1083L35.775 80.8917L60.775 105.892L67.225 112.342L73.0667 105.333Z" fill="#00D8D8"/>
</svg>
