<svg width="50" height="50" viewBox="0 0 50 50" fill="none" xmlns="http://www.w3.org/2000/svg">
<path d="M25 46.3447C36.6562 46.3447 46.3446 36.6768 46.3446 25C46.3446 13.3438 36.6348 3.65536 24.9786 3.65536C13.3027 3.65536 3.65625 13.3438 3.65625 25C3.65625 36.6768 13.3232 46.3447 25 46.3447ZM28.8509 35.8822C28.2652 36.4679 27.1357 36.3839 26.5071 35.8197L17.3411 27.1964C16.1268 26.0241 16.1063 24.0152 17.3411 22.8643L26.5063 14.2429C27.1973 13.5947 28.2018 13.5527 28.8295 14.1804C29.4786 14.8286 29.5411 15.917 28.8714 16.5447L19.8304 25.0205L28.8705 33.5384C29.4982 34.1455 29.5188 35.2116 28.8491 35.8813" fill="white"/>
</svg>
