<svg width="24" height="24" viewBox="0 0 24 24" fill="none" xmlns="http://www.w3.org/2000/svg">
<g clip-path="url(#clip0_126_109)">
<rect width="24" height="24" rx="12" fill="#787880" fill-opacity="0.2"/>
<path fill-rule="evenodd" clip-rule="evenodd" d="M13.0606 12L16.0659 8.99478C16.3588 8.70188 16.3588 8.22701 16.0659 7.93412C15.773 7.64122 15.2981 7.64122 15.0052 7.93412L12 10.9393L8.99478 7.93414C8.70188 7.64125 8.22701 7.64125 7.93412 7.93414C7.64122 8.22703 7.64122 8.70191 7.93412 8.9948L10.9393 12L7.93413 15.0052C7.64124 15.2981 7.64124 15.773 7.93413 16.0659C8.22703 16.3588 8.7019 16.3588 8.99479 16.0659L12 13.0607L15.0052 16.0659C15.2981 16.3588 15.773 16.3588 16.0659 16.0659C16.3588 15.773 16.3588 15.2981 16.0659 15.0052L13.0606 12Z" fill="#3C3C43" fill-opacity="0.6"/>
</g>
<defs>
<clipPath id="clip0_126_109">
<rect width="24" height="24" rx="12" fill="white"/>
</clipPath>
</defs>
</svg>
