<svg width="20" height="20" viewBox="0 0 20 20" fill="none" xmlns="http://www.w3.org/2000/svg">
<g clip-path="url(#clip0_126_98)">
<path d="M4.28571 9.99981V6.24267C4.29687 5.50414 4.45365 4.77508 4.74705 4.09724C5.04046 3.41941 5.46474 2.80614 5.99557 2.29256C6.5264 1.77898 7.15335 1.37519 7.84051 1.10433C8.52766 0.833467 9.26151 0.700858 10 0.714098C10.7385 0.700858 11.4723 0.833467 12.1595 1.10433C12.8466 1.37519 13.4736 1.77898 14.0044 2.29256C14.5353 2.80614 14.9595 3.41941 15.2529 4.09724C15.5464 4.77508 15.7031 5.50414 15.7143 6.24267V9.99981M12.8571 17.4998C13.6149 17.4998 14.3416 17.1988 14.8774 16.663C15.4133 16.1272 15.7143 15.4004 15.7143 14.6427V11.4284M12.8571 17.4998C12.8571 17.9734 12.669 18.4276 12.3341 18.7625C11.9992 19.0974 11.545 19.2855 11.0714 19.2855H8.92857C8.45497 19.2855 8.00077 19.0974 7.66588 18.7625C7.33099 18.4276 7.14286 17.9734 7.14286 17.4998C7.14286 17.0262 7.33099 16.572 7.66588 16.2371C8.00077 15.9022 8.45497 15.7141 8.92857 15.7141H11.0714C11.545 15.7141 11.9992 15.9022 12.3341 16.2371C12.669 16.572 12.8571 17.0262 12.8571 17.4998ZM2.14286 7.85696H3.57143C3.76087 7.85696 3.94255 7.93221 4.0765 8.06616C4.21046 8.20012 4.28571 8.3818 4.28571 8.57124V12.857C4.28571 13.0464 4.21046 13.2281 4.0765 13.362C3.94255 13.496 3.76087 13.5712 3.57143 13.5712H2.14286C1.76398 13.5712 1.40061 13.4207 1.1327 13.1528C0.864795 12.8849 0.714285 12.5216 0.714285 12.1427V9.28553C0.714285 8.90665 0.864795 8.54328 1.1327 8.27537C1.40061 8.00747 1.76398 7.85696 2.14286 7.85696ZM17.8571 13.5712H16.4286C16.2391 13.5712 16.0574 13.496 15.9235 13.362C15.7895 13.2281 15.7143 13.0464 15.7143 12.857V8.57124C15.7143 8.3818 15.7895 8.20012 15.9235 8.06616C16.0574 7.93221 16.2391 7.85696 16.4286 7.85696H17.8571C18.236 7.85696 18.5994 8.00747 18.8673 8.27537C19.1352 8.54328 19.2857 8.90665 19.2857 9.28553V12.1427C19.2857 12.5216 19.1352 12.8849 18.8673 13.1528C18.5994 13.4207 18.236 13.5712 17.8571 13.5712Z" stroke="black" stroke-width="1.42857" stroke-linecap="round" stroke-linejoin="round"/>
</g>
<defs>
<clipPath id="clip0_126_98">
<rect width="20" height="20" fill="white"/>
</clipPath>
</defs>
</svg>
