<svg width="30" height="30" viewBox="0 0 30 30" fill="none" xmlns="http://www.w3.org/2000/svg">
<path d="M15 3.04688C8.82305 3.04688 3.98438 5.82656 3.98438 9.375V20.625C3.98438 24.1734 8.82305 26.9531 15 26.9531C21.177 26.9531 26.0156 24.1734 26.0156 20.625V9.375C26.0156 5.82656 21.177 3.04688 15 3.04688ZM15 4.45312C20.209 4.45312 24.6094 6.70664 24.6094 9.375C24.6094 12.0434 20.209 14.2969 15 14.2969C9.79102 14.2969 5.39062 12.0434 5.39062 9.375C5.39062 6.70664 9.79102 4.45312 15 4.45312ZM24.6094 20.625C24.6094 23.2934 20.209 25.5469 15 25.5469C9.79102 25.5469 5.39062 23.2934 5.39062 20.625V18.1395C7.26562 20.0578 10.8246 21.3281 15 21.3281C19.1754 21.3281 22.7344 20.0578 24.6094 18.1395V20.625ZM24.6094 15C24.6094 17.6684 20.209 19.9219 15 19.9219C9.79102 19.9219 5.39062 17.6684 5.39062 15V12.5145C7.26562 14.4328 10.8246 15.7031 15 15.7031C19.1754 15.7031 22.7344 14.4328 24.6094 12.5145V15Z" fill="black"/>
</svg>
