<svg width="20" height="20" viewBox="0 0 20 20" fill="none" xmlns="http://www.w3.org/2000/svg">
<path d="M10 17.8125L10.4313 18.645C10.298 18.714 10.1501 18.7501 10 18.7501C9.84991 18.7501 9.70202 18.714 9.56875 18.645L9.55875 18.64L9.53625 18.6275C9.40532 18.5599 9.27611 18.4891 9.14875 18.415C7.62501 17.5483 6.18764 16.5378 4.85625 15.3975C2.55625 13.4137 0 10.4375 0 6.875C0 3.545 2.6075 1.25 5.3125 1.25C7.24625 1.25 8.94125 2.2525 10 3.775C11.0588 2.2525 12.7537 1.25 14.6875 1.25C17.3925 1.25 20 3.545 20 6.875C20 10.4375 17.4438 13.4137 15.1437 15.3975C13.6996 16.633 12.1312 17.7154 10.4638 18.6275L10.4412 18.64L10.4338 18.6437H10.4313L10 17.8125ZM5.3125 3.125C3.6425 3.125 1.875 4.58 1.875 6.875C1.875 9.5625 3.85 12.055 6.08125 13.9775C7.29869 15.0186 8.61063 15.9439 10 16.7412C11.3894 15.9439 12.7013 15.0186 13.9188 13.9775C16.15 12.055 18.125 9.5625 18.125 6.875C18.125 4.58 16.3575 3.125 14.6875 3.125C12.9712 3.125 11.4262 4.3575 10.9012 6.195C10.846 6.39147 10.728 6.56449 10.5653 6.68772C10.4026 6.81096 10.2041 6.87765 10 6.87765C9.7959 6.87765 9.59739 6.81096 9.4347 6.68772C9.272 6.56449 9.15403 6.39147 9.09875 6.195C8.57375 4.3575 7.02875 3.125 5.3125 3.125Z" fill="black"/>
</svg>
