<svg width="30" height="25" viewBox="0 0 30 25" fill="#000000" xmlns="http://www.w3.org/2000/svg">
<path d="M14.6023 6.26847L5.0004 14.4042V23.185C5.0004 23.4124 5.08819 23.6304 5.24445 23.7912C5.40072 23.9519 5.61267 24.0422 5.83366 24.0422L11.6697 24.0267C11.8899 24.0256 12.1008 23.9347 12.2562 23.7741C12.4116 23.6135 12.4988 23.3961 12.4988 23.1695V18.0416C12.4988 17.8142 12.5866 17.5962 12.7428 17.4354C12.8991 17.2746 13.111 17.1843 13.332 17.1843H16.6651C16.8861 17.1843 17.0981 17.2746 17.2543 17.4354C17.4106 17.5962 17.4984 17.8142 17.4984 18.0416V23.1657C17.498 23.2785 17.5193 23.3903 17.5611 23.4946C17.6028 23.5989 17.6641 23.6937 17.7415 23.7736C17.8189 23.8535 17.9109 23.9169 18.0122 23.9601C18.1134 24.0034 18.222 24.0256 18.3317 24.0256L24.1656 24.0422C24.3866 24.0422 24.5985 23.9519 24.7548 23.7912C24.9111 23.6304 24.9989 23.4124 24.9989 23.185V14.3983L15.3991 6.26847C15.2862 6.17488 15.1456 6.12385 15.0007 6.12385C14.8557 6.12385 14.7151 6.17488 14.6023 6.26847ZM29.7693 11.7982L25.4155 8.10617V0.685165C25.4155 0.51465 25.3496 0.351119 25.2324 0.230546C25.1152 0.109973 24.9563 0.0422363 24.7905 0.0422363H21.8741C21.7083 0.0422363 21.5494 0.109973 21.4322 0.230546C21.315 0.351119 21.2491 0.51465 21.2491 0.685165V4.57542L16.5865 0.628909C16.139 0.250106 15.5775 0.0429936 14.9981 0.0429936C14.4186 0.0429936 13.8571 0.250106 13.4096 0.628909L0.226805 11.7982C0.163522 11.852 0.111165 11.9181 0.0727266 11.9927C0.0342879 12.0674 0.0105204 12.1491 0.00278216 12.2332C-0.0049561 12.3172 0.00348653 12.4021 0.0276277 12.4828C0.0517688 12.5635 0.0911353 12.6386 0.143478 12.7036L1.4715 14.3645C1.5237 14.4298 1.58791 14.4839 1.66044 14.5237C1.73298 14.5634 1.81242 14.588 1.89422 14.5961C1.97603 14.6042 2.05858 14.5957 2.13716 14.5709C2.21574 14.5462 2.2888 14.5057 2.35216 14.4519L14.6023 4.07179C14.7151 3.97821 14.8557 3.92717 15.0007 3.92717C15.1456 3.92717 15.2862 3.97821 15.3991 4.07179L27.6497 14.4519C27.7129 14.5057 27.7859 14.5462 27.8644 14.5711C27.9428 14.5959 28.0253 14.6046 28.107 14.5966C28.1888 14.5887 28.2682 14.5642 28.3407 14.5247C28.4133 14.4851 28.4775 14.4313 28.5298 14.3662L29.8579 12.7053C29.9101 12.6398 29.9493 12.5644 29.9732 12.4833C29.9971 12.4022 30.0051 12.3171 29.9969 12.2328C29.9886 12.1485 29.9643 12.0667 29.9253 11.9921C29.8862 11.9175 29.8332 11.8516 29.7693 11.7982Z" fill="#EB4335"/>
</svg>
