<svg width="40" height="40" viewBox="0 0 40 40" fill="none" xmlns="http://www.w3.org/2000/svg">
<rect width="40" height="40" rx="12" fill="white"/>
<path d="M27.5 21C27.5 22.9891 26.7098 24.8968 25.3033 26.3033C23.8968 27.7098 21.9891 28.5 20 28.5C18.0109 28.5 16.1032 27.7098 14.6967 26.3033C13.2902 24.8968 12.5 22.9891 12.5 21C12.5 19.0109 13.2902 17.1032 14.6967 15.6967C16.1032 14.2902 18.0109 13.5 20 13.5C21.9891 13.5 23.8968 14.2902 25.3033 15.6967C26.7098 17.1032 27.5 19.0109 27.5 21Z" fill="black"/>
<path fill-rule="evenodd" clip-rule="evenodd" d="M20 7.5625C20.2486 7.5625 20.4871 7.66127 20.6629 7.83709C20.8387 8.0129 20.9375 8.25136 20.9375 8.5V9.75C20.9375 9.99864 20.8387 10.2371 20.6629 10.4129C20.4871 10.5887 20.2486 10.6875 20 10.6875C19.7514 10.6875 19.5129 10.5887 19.3371 10.4129C19.1613 10.2371 19.0625 9.99864 19.0625 9.75V8.5C19.0625 8.25136 19.1613 8.0129 19.3371 7.83709C19.5129 7.66127 19.7514 7.5625 20 7.5625ZM6.5625 21C6.5625 20.7514 6.66127 20.5129 6.83709 20.3371C7.0129 20.1613 7.25136 20.0625 7.5 20.0625H8.75C8.99864 20.0625 9.2371 20.1613 9.41291 20.3371C9.58873 20.5129 9.6875 20.7514 9.6875 21C9.6875 21.2486 9.58873 21.4871 9.41291 21.6629C9.2371 21.8387 8.99864 21.9375 8.75 21.9375H7.5C7.25136 21.9375 7.0129 21.8387 6.83709 21.6629C6.66127 21.4871 6.5625 21.2486 6.5625 21ZM30.3125 21C30.3125 20.7514 30.4113 20.5129 30.5871 20.3371C30.7629 20.1613 31.0014 20.0625 31.25 20.0625H32.5C32.7486 20.0625 32.9871 20.1613 33.1629 20.3371C33.3387 20.5129 33.4375 20.7514 33.4375 21C33.4375 21.2486 33.3387 21.4871 33.1629 21.6629C32.9871 21.8387 32.7486 21.9375 32.5 21.9375H31.25C31.0014 21.9375 30.7629 21.8387 30.5871 21.6629C30.4113 21.4871 30.3125 21.2486 30.3125 21ZM20 31.3125C20.2486 31.3125 20.4871 31.4113 20.6629 31.5871C20.8387 31.7629 20.9375 32.0014 20.9375 32.25V33.5C20.9375 33.7486 20.8387 33.9871 20.6629 34.1629C20.4871 34.3387 20.2486 34.4375 20 34.4375C19.7514 34.4375 19.5129 34.3387 19.3371 34.1629C19.1613 33.9871 19.0625 33.7486 19.0625 33.5V32.25C19.0625 32.0014 19.1613 31.7629 19.3371 31.5871C19.5129 31.4113 19.7514 31.3125 20 31.3125Z" fill="black"/>
<path opacity="0.5" d="M10.4975 11.4975C10.5846 11.4103 10.6879 11.3412 10.8017 11.2941C10.9155 11.2469 11.0375 11.2227 11.1606 11.2227C11.2838 11.2227 11.4057 11.2469 11.5195 11.2941C11.6333 11.3412 11.7367 11.4103 11.8238 11.4975L12.315 11.9887C12.4806 12.1664 12.5708 12.4015 12.5665 12.6444C12.5622 12.8872 12.4638 13.119 12.292 13.2907C12.1203 13.4625 11.8885 13.5609 11.6457 13.5652C11.4028 13.5695 11.1677 13.4793 10.99 13.3137L10.4975 12.8237C10.3219 12.6479 10.2233 12.4096 10.2233 12.1612C10.2233 11.9128 10.3219 11.6745 10.4975 11.4987M29.5 11.4987C29.6756 11.6745 29.7742 11.9128 29.7742 12.1612C29.7742 12.4096 29.6756 12.6479 29.5 12.8237L29.01 13.315C28.8323 13.4806 28.5972 13.5707 28.3543 13.5664C28.1115 13.5621 27.8797 13.4637 27.708 13.292C27.5362 13.1202 27.4378 12.8885 27.4335 12.6456C27.4292 12.4027 27.5194 12.1677 27.685 11.99L28.175 11.4987C28.3508 11.3231 28.5891 11.2245 28.8375 11.2245C29.0859 11.2245 29.3242 11.3231 29.5 11.4987ZM27.6838 28.6837C27.7708 28.5966 27.8742 28.5275 27.988 28.4803C28.1018 28.4332 28.2237 28.4089 28.3469 28.4089C28.47 28.4089 28.592 28.4332 28.7058 28.4803C28.8196 28.5275 28.9229 28.5966 29.01 28.6837L29.5012 29.175C29.6669 29.3527 29.757 29.5877 29.7527 29.8306C29.7484 30.0735 29.65 30.3052 29.4783 30.477C29.3065 30.6487 29.0748 30.7471 28.8319 30.7514C28.589 30.7557 28.354 30.6656 28.1763 30.5L27.6838 30.01C27.5082 29.8342 27.4096 29.5959 27.4096 29.3475C27.4096 29.099 27.5082 28.8607 27.6838 28.685M12.315 28.685C12.4906 28.8607 12.5892 29.099 12.5892 29.3475C12.5892 29.5959 12.4906 29.8342 12.315 30.01L11.8238 30.5012C11.7379 30.5933 11.6344 30.6672 11.5194 30.7184C11.4044 30.7697 11.2803 30.7972 11.1544 30.7994C11.0285 30.8017 10.9035 30.7785 10.7868 30.7314C10.67 30.6842 10.564 30.614 10.475 30.525C10.3859 30.436 10.3157 30.3299 10.2686 30.2132C10.2214 30.0965 10.1983 29.9714 10.2005 29.8456C10.2027 29.7197 10.2303 29.5955 10.2815 29.4805C10.3328 29.3655 10.4066 29.262 10.4988 29.1762L10.9888 28.685C11.1645 28.5094 11.4028 28.4108 11.6513 28.4108C11.8997 28.4108 12.138 28.5094 12.3138 28.685" fill="black"/>
</svg>
