<svg width="40" height="40" viewBox="0 0 40 40" fill="none" xmlns="http://www.w3.org/2000/svg">
<rect width="40" height="40" rx="12" fill="black"/>
<path d="M32.5851 21.549C32.4035 21.367 32.1758 21.2379 31.9263 21.1756C31.6769 21.1133 31.4152 21.12 31.1693 21.1951C29.4516 21.7135 27.6254 21.7564 25.8853 21.3192C24.1451 20.882 22.5561 19.9811 21.2877 18.7124C20.0192 17.4437 19.1186 15.8548 18.682 14.1148C18.2454 12.3749 18.289 10.5491 18.8082 8.83203C18.8839 8.5861 18.8912 8.32417 18.8292 8.07442C18.7671 7.82467 18.6382 7.59655 18.4562 7.41459C18.2742 7.23262 18.046 7.10371 17.7962 7.0417C17.5464 6.9797 17.2844 6.98695 17.0384 7.06268C14.4551 7.85652 12.188 9.44489 10.56 11.6017C9.13627 13.4936 8.26806 15.7447 8.05277 18.1024C7.83748 20.4602 8.28363 22.8313 9.34115 24.9496C10.3987 27.068 12.0257 28.8498 14.0397 30.0952C16.0537 31.3405 18.375 32.0001 20.7431 31.9999C23.5079 32.008 26.1989 31.1092 28.4038 29.4415C30.5599 27.8122 32.147 25.5444 32.9391 22.9609C33.0135 22.7156 33.0199 22.4546 32.9575 22.206C32.8952 21.9573 32.7665 21.7302 32.5851 21.549ZM26.7001 27.1802C24.7917 28.6166 22.4287 29.3155 20.0458 29.1483C17.663 28.9811 15.4207 27.9592 13.7316 26.2705C12.0426 24.5818 11.0204 22.34 10.8532 19.9577C10.686 17.5754 11.3851 15.2129 12.8217 13.305C13.5776 12.3052 14.5145 11.4561 15.5837 10.8019C15.5625 11.1039 15.5518 11.407 15.5518 11.7114C15.5556 15.0889 16.8993 18.327 19.2881 20.7153C21.6769 23.1036 24.9158 24.447 28.2941 24.4507C28.5984 24.4507 28.9017 24.4401 29.2037 24.4189C28.5496 25.488 27.7003 26.4247 26.7001 27.1802Z" fill="white"/>
</svg>
