<svg width="50" height="50" viewBox="0 0 50 50" fill="none" xmlns="http://www.w3.org/2000/svg">
<g clip-path="url(#clip0_123_5)">
<path d="M25 0.78125C11.6211 0.78125 0.78125 11.6211 0.78125 25C0.78125 38.3789 11.6211 49.2188 25 49.2188C38.3789 49.2188 49.2188 38.3789 49.2188 25C49.2188 11.6211 38.3789 0.78125 25 0.78125ZM39.0625 27.7344C39.0625 28.3789 38.5352 28.9062 37.8906 28.9062H28.9062V37.8906C28.9062 38.5352 28.3789 39.0625 27.7344 39.0625H22.2656C21.6211 39.0625 21.0938 38.5352 21.0938 37.8906V28.9062H12.1094C11.4648 28.9062 10.9375 28.3789 10.9375 27.7344V22.2656C10.9375 21.6211 11.4648 21.0938 12.1094 21.0938H21.0938V12.1094C21.0938 11.4648 21.6211 10.9375 22.2656 10.9375H27.7344C28.3789 10.9375 28.9062 11.4648 28.9062 12.1094V21.0938H37.8906C38.5352 21.0938 39.0625 21.6211 39.0625 22.2656V27.7344Z" fill="#EB4335"/>
</g>
<defs>
<clipPath id="clip0_123_5">
<rect width="50" height="50" fill="white"/>
</clipPath>
</defs>
</svg>
