<svg width="20" height="20" viewBox="0 0 20 20" fill="none" xmlns="http://www.w3.org/2000/svg">
<path d="M11.25 14.0625C11.25 14.3097 11.1767 14.5514 11.0393 14.757C10.902 14.9625 10.7068 15.1227 10.4784 15.2174C10.2499 15.312 9.99861 15.3367 9.75614 15.2885C9.51366 15.2403 9.29093 15.1212 9.11612 14.9464C8.9413 14.7716 8.82225 14.5488 8.77402 14.3064C8.72579 14.0639 8.75054 13.8126 8.84515 13.5841C8.93976 13.3557 9.09998 13.1605 9.30554 13.0232C9.5111 12.8858 9.75277 12.8125 10 12.8125C10.3315 12.8125 10.6495 12.9442 10.8839 13.1786C11.1183 13.413 11.25 13.731 11.25 14.0625ZM18.4375 10C18.4375 11.6688 17.9426 13.3001 17.0155 14.6876C16.0884 16.0752 14.7706 17.1566 13.2289 17.7952C11.6871 18.4338 9.99064 18.6009 8.35393 18.2754C6.71721 17.9498 5.21379 17.1462 4.03379 15.9662C2.85378 14.7862 2.05019 13.2828 1.72462 11.6461C1.39906 10.0094 1.56615 8.31286 2.20477 6.77111C2.84338 5.22936 3.92484 3.9116 5.31238 2.98448C6.69992 2.05735 8.33122 1.5625 10 1.5625C12.237 1.56498 14.3817 2.45473 15.9635 4.03653C17.5453 5.61833 18.435 7.763 18.4375 10ZM16.5625 10C16.5625 8.70206 16.1776 7.43327 15.4565 6.35407C14.7354 5.27487 13.7105 4.43374 12.5114 3.93704C11.3122 3.44034 9.99272 3.31038 8.71972 3.5636C7.44672 3.81681 6.27739 4.44183 5.35961 5.35961C4.44183 6.27739 3.81681 7.44672 3.5636 8.71972C3.31038 9.99272 3.44034 11.3122 3.93704 12.5114C4.43374 13.7105 5.27487 14.7354 6.35407 15.4565C7.43327 16.1776 8.70206 16.5625 10 16.5625C11.7399 16.5606 13.408 15.8686 14.6383 14.6383C15.8686 13.408 16.5606 11.7399 16.5625 10ZM10 5C8.10469 5 6.5625 6.40156 6.5625 8.125V8.4375C6.5625 8.68614 6.66127 8.9246 6.83709 9.10041C7.0129 9.27623 7.25136 9.375 7.5 9.375C7.74864 9.375 7.9871 9.27623 8.16291 9.10041C8.33873 8.9246 8.4375 8.68614 8.4375 8.4375V8.125C8.4375 7.43594 9.14062 6.875 10 6.875C10.8594 6.875 11.5625 7.43594 11.5625 8.125C11.5625 8.81406 10.8594 9.375 10 9.375C9.75136 9.375 9.5129 9.47377 9.33709 9.64959C9.16127 9.8254 9.0625 10.0639 9.0625 10.3125V10.9375C9.06194 11.1691 9.14714 11.3927 9.30168 11.5653C9.45622 11.7378 9.66916 11.847 9.89944 11.8719C10.1297 11.8967 10.3611 11.8354 10.5488 11.6998C10.7366 11.5642 10.8676 11.3639 10.9164 11.1375C12.368 10.7719 13.4375 9.56016 13.4375 8.125C13.4375 6.40156 11.8953 5 10 5Z" fill="black"/>
</svg>
