<svg width="20" height="20" viewBox="0 0 20 20" fill="none" xmlns="http://www.w3.org/2000/svg">
<path fill-rule="evenodd" clip-rule="evenodd" d="M10 1.13336C9.8232 1.13336 9.65364 1.2036 9.52861 1.32862C9.40359 1.45365 9.33335 1.62322 9.33335 1.80003V4.69603C9.33335 4.87284 9.40359 5.04241 9.52861 5.16743C9.65364 5.29246 9.8232 5.3627 10 5.3627C10.1768 5.3627 10.3464 5.29246 10.4714 5.16743C10.5964 5.04241 10.6667 4.87284 10.6667 4.69603V2.49603C12.3477 2.64551 13.9299 3.35515 15.1595 4.51115C16.3891 5.66716 17.1949 7.20257 17.4478 8.87121C17.7006 10.5398 17.3858 12.2451 16.5538 13.7134C15.7218 15.1818 14.4209 16.3283 12.8596 16.969C11.2983 17.6098 9.56701 17.7077 7.9434 17.2471C6.31979 16.7865 4.89787 15.794 3.90563 14.4288C2.91339 13.0636 2.4083 11.4048 2.47135 9.71831C2.53441 8.0318 3.16194 6.41532 4.25335 5.12803C4.31284 5.06172 4.35844 4.98417 4.38746 4.89995C4.41647 4.81572 4.42831 4.72654 4.42228 4.63766C4.41625 4.54878 4.39246 4.46202 4.35233 4.38249C4.3122 4.30296 4.25654 4.23227 4.18864 4.17462C4.12073 4.11696 4.04196 4.07349 3.95697 4.04679C3.87199 4.02009 3.78251 4.01069 3.69384 4.01915C3.60516 4.02761 3.51907 4.05376 3.44067 4.09605C3.36226 4.13833 3.29313 4.19591 3.23735 4.26536C1.9308 5.80609 1.18954 7.74678 1.13626 9.7662C1.08299 11.7856 1.7209 13.7627 2.9444 15.3702C4.1679 16.9776 5.90363 18.1191 7.86429 18.6057C9.82495 19.0922 11.893 18.8947 13.7261 18.0457C15.5591 17.1968 17.0474 15.7473 17.9444 13.9373C18.8414 12.1272 19.0935 10.0651 18.6589 8.09232C18.2242 6.11951 17.1289 4.35425 15.5543 3.08876C13.9797 1.82326 12.0201 1.1334 10 1.13336ZM8.98668 10.7734L5.63202 6.09736C5.58735 6.03317 5.56668 5.95533 5.57361 5.87743C5.58054 5.79954 5.61463 5.72657 5.66993 5.67127C5.72522 5.61598 5.7982 5.58188 5.87609 5.57495C5.95398 5.56802 6.03183 5.5887 6.09602 5.63336L10.7747 8.9867C10.9252 9.09508 11.0504 9.23488 11.1416 9.39643C11.2327 9.55797 11.2877 9.7374 11.3026 9.92229C11.3176 10.1072 11.2922 10.2931 11.2282 10.4672C11.1641 10.6413 11.0631 10.7994 10.9319 10.9306C10.8007 11.0617 10.6426 11.1628 10.4685 11.2268C10.2944 11.2909 10.1085 11.3163 9.92361 11.3013C9.73873 11.2864 9.5593 11.2314 9.39775 11.1402C9.2362 11.0491 9.0964 10.9239 8.98802 10.7734" fill="#00D8D8"/>
</svg>
