<svg width="105" height="105" viewBox="0 0 105 105" fill="none" xmlns="http://www.w3.org/2000/svg">
<path d="M52.5 1.64062C24.4043 1.64062 1.64062 24.4043 1.64062 52.5C1.64062 80.5957 24.4043 103.359 52.5 103.359C80.5957 103.359 103.359 80.5957 103.359 52.5C103.359 24.4043 80.5957 1.64062 52.5 1.64062ZM52.5 21.3281C62.4668 21.3281 70.5469 29.4082 70.5469 39.375C70.5469 49.3418 62.4668 57.4219 52.5 57.4219C42.5332 57.4219 34.4531 49.3418 34.4531 39.375C34.4531 29.4082 42.5332 21.3281 52.5 21.3281ZM52.5 91.875C40.4619 91.875 29.6748 86.4199 22.4561 77.8887C26.3115 70.6289 33.8584 65.625 42.6562 65.625C43.1484 65.625 43.6406 65.707 44.1123 65.8506C46.7783 66.7119 49.5674 67.2656 52.5 67.2656C55.4326 67.2656 58.2422 66.7119 60.8877 65.8506C61.3594 65.707 61.8516 65.625 62.3438 65.625C71.1416 65.625 78.6885 70.6289 82.5439 77.8887C75.3252 86.4199 64.5381 91.875 52.5 91.875Z" fill="black"/>
</svg>
